<svg xmlns="http://www.w3.org/2000/svg" viewBox="0 0 460.298 366.31" fill="#515151"><title>home2</title><path d="M230.149,120.939,65.986,256.274a3.878,3.878,0,0,1-.144.855,3.908,3.908,0,0,0-.144.852V395.022A18.54,18.54,0,0,0,83.971,413.3H193.6V303.664h73.1V413.3H376.327a18.558,18.558,0,0,0,18.279-18.282V257.981a4.018,4.018,0,0,0-.288-1.707Z" transform="translate(0.001 -46.994)"/><path d="M457.122,225.438,394.6,173.476V56.989a8.8,8.8,0,0,0-9.137-9.135H330.647a8.789,8.789,0,0,0-9.136,9.135v55.673L251.849,54.417a35.418,35.418,0,0,0-43.392,0L3.172,225.438a8.292,8.292,0,0,0-3.14,6.136,9.245,9.245,0,0,0,2,6.713l17.7,21.128a9.738,9.738,0,0,0,6,3.142,10.611,10.611,0,0,0,6.855-2L230.149,95.817l197.57,164.741a8.8,8.8,0,0,0,6,1.991h.858a9.75,9.75,0,0,0,6-3.138l17.7-21.125a9.241,9.241,0,0,0,1.991-6.716A8.319,8.319,0,0,0,457.122,225.438Z" transform="translate(0.001 -46.994)"/></svg>