<svg xmlns="http://www.w3.org/2000/svg" viewBox="0 0 512 511.9" width="42" height="42" fill="#ad8651"><path d="M510.4 215.5l-82-125c-1.8-2.8-5-4.5-8.4-4.5H92.4c-3.4 0-6.5 1.7-8.3 4.5L1.9 215.2c-.4.5-.7 1.1-1 1.7-1.6 3.6-1 7.8 1.6 10.7l41.6 47.5c3.6 4.2 10 4.6 14.1.9 4.2-3.6 4.6-10 .9-14.1L32 231h134.5l67.6 230.7-76.4-87.2c-3.6-4.2-10-4.6-14.1-.9-4.2 3.6-4.6 10-.9 14.1l105.8 120.8c1.9 2.2 4.6 3.4 7.5 3.4 2.9 0 5.6-1.2 7.5-3.4l112.6-128.6c3.6-4.2 3.2-10.5-.9-14.1-4.2-3.6-10.5-3.2-14.1.9l-83.2 95L345.5 231H480l-62.2 71c-3.6 4.2-3.2 10.5.9 14.1 1.9 1.7 4.2 2.5 6.6 2.5 2.8 0 5.5-1.2 7.5-3.4l76.7-87.6c3-3.4 3.3-8.3.9-12.1zM28.6 211l63.8-96.8 63.5 96.8H28.6zm82.3-105h126.6l-63.3 96.5-63.3-96.5zm145.1 8.2l63.5 96.8H192.6l63.4-96.8zm0 351.2L187.4 231h137.3L256 465.4zm82-262.6L274.5 106h127L338 202.8zm18.5 8.2l63.5-96.8 63.5 96.8h-127z"/><path d="M157.2 327c-25.8 0-46.8-21-46.8-46.8 0-5.5-4.5-10-10-10s-10 4.5-10 10c0 25.8-21 46.8-46.8 46.8-5.5 0-10 4.5-10 10s4.5 10 10 10c25.8 0 46.8 21 46.8 46.8 0 5.5 4.5 10 10 10s10-4.5 10-10c0-25.8 21-46.8 46.8-46.8 5.5 0 10-4.5 10-10s-4.5-10-10-10zm-56.8 31.6c-5.5-8.8-12.9-16.2-21.7-21.7 8.8-5.5 16.2-12.9 21.7-21.7 5.5 8.8 12.9 16.2 21.7 21.7-8.8 5.5-16.2 13-21.7 21.7zM502 40c-16.5 0-30-13.5-30-30 0-5.5-4.5-10-10-10s-10 4.5-10 10c0 16.5-13.5 30-30 30-5.5 0-10 4.5-10 10s4.5 10 10 10c16.5 0 30 13.5 30 30 0 5.5 4.5 10 10 10s10-4.5 10-10c0-16.5 13.5-30 30-30 5.5 0 10-4.5 10-10s-4.5-10-10-10zm-40 20c-2.9-3.8-6.2-7.2-10-10 3.8-2.9 7.2-6.2 10-10 2.9 3.8 6.2 7.2 10 10-3.8 2.8-7.1 6.2-10 10zm-59.2 275.3c-1.9-1.9-4.4-2.9-7.1-2.9-2.6 0-5.2 1.1-7.1 2.9-1.9 1.9-2.9 4.4-2.9 7.1s1.1 5.2 2.9 7.1c1.9 1.9 4.4 2.9 7.1 2.9 2.6 0 5.2-1.1 7.1-2.9 1.9-1.9 2.9-4.4 2.9-7.1s-1.1-5.2-2.9-7.1z"/></svg>