<svg xmlns="http://www.w3.org/2000/svg" viewBox="0 0 512 512" width="41" height="41" fill="#ad8651"><path d="M481.9 207.8l-82.6-61.1c10.9-17.3 16.5-33.3 16.5-47.7 0-54.6-43.4-99-96.8-99-23.1 0-45.6 8.6-63 23.9C238.5 8.6 216.1 0 193 0c-53.4 0-96.8 44.4-96.8 99 0 14.5 5.6 30.5 16.6 47.9l-82.7 60.8c-2.6 1.9-4.1 4.9-4.1 8.1v250.4c0 25.2 20.5 45.8 45.8 45.8h368.5c25.2 0 45.8-20.5 45.8-45.8V215.8c-.1-3.1-1.6-6.1-4.2-8zM193 20c21.3 0 41 8.7 55.7 24.6 1.9 2.1 4.6 3.2 7.4 3.2s5.5-1.2 7.4-3.2C278 28.7 297.8 20 319 20c42.3 0 76.8 35.4 76.8 79 0 49.8-96.3 123.3-139.8 151.8-43.6-28.5-139.8-102-139.8-151.8 0-43.6 34.4-79 76.8-79zM59.4 488.7s-.1 0 0 0c-8-4.3-13.4-12.8-13.4-22.4V240l131 131L59.4 488.7zm24.9 3.3l28.3-28.3H244c5.5 0 10-4.5 10-10s-4.5-10-10-10H132.6l22.9-22.9h64.7c5.5 0 10-4.5 10-10s-4.5-10-10-10h-44.7l41.9-41.9c21.2-21.2 55.8-21.2 77 0L427.7 492H84.3zM466 466.2c0 9.7-5.4 18.1-13.3 22.5l-.1-.1L335 371l31-31c3.9-3.9 3.9-10.2 0-14.1-3.9-3.9-10.2-3.9-14.1 0l-31 31-12.2-12.2c-29-29-76.3-29-105.3 0l-12.2 12.2L51.3 217l73.1-53.7c12.6 16 29.3 33 50.2 51 37.6 32.4 74.5 55.9 76.1 56.9 1.6 1 3.5 1.6 5.3 1.6 1.9 0 3.7-.5 5.3-1.6 1.6-1 38.5-24.5 76.1-56.9 21-18.1 37.8-35.2 50.4-51.2l72.9 53.9-49.5 49.5c-3.9 3.9-3.9 10.2 0 14.1 2 2 4.5 2.9 7.1 2.9 2.6 0 5.1-1 7.1-2.9L466 240v226.2z"/><path d="M286.5 55.8c-4.1-3.7-10.4-3.5-14.2.6l-.1.1c-3.7 4.1-3.5 10.3.6 14.1 1.9 1.8 4.3 2.6 6.8 2.6 2.7 0 5.4-1.1 7.4-3.2l.1-.1c3.7-4.1 3.5-10.4-.6-14.1zm28.6-18.4c-5.5 0-10 4.5-10 10s4.5 10 10 10c21.7 0 39.3 18.6 39.3 41.6 0 5.5 4.5 10 10 10s10-4.5 10-10c.1-33.9-26.5-61.6-59.3-61.6zM65.4 81.7h-6.9c-5.5 0-10 4.5-10 10s4.5 10 10 10h6.9c5.5 0 10-4.5 10-10s-4.5-10-10-10zm-48.5 0H10c-5.5 0-10 4.5-10 10s4.5 10 10 10h6.9c5.5 0 10-4.5 10-10s-4.5-10-10-10zm20.8 20.8c-5.5 0-10 4.5-10 10v6.9c0 5.5 4.5 10 10 10s10-4.5 10-10v-6.9c0-5.5-4.5-10-10-10zm0-48.5c-5.5 0-10 4.5-10 10v6.9c0 5.5 4.5 10 10 10s10-4.5 10-10V64c0-5.5-4.5-10-10-10zM502 118h-6.9c-5.5 0-10 4.5-10 10s4.5 10 10 10h6.9c5.5 0 10-4.5 10-10s-4.5-10-10-10zm-48.5 0h-6.9c-5.5 0-10 4.5-10 10s4.5 10 10 10h6.9c5.5 0 10-4.5 10-10s-4.5-10-10-10zm20.8 20.8c-5.5 0-10 4.5-10 10v6.9c0 5.5 4.5 10 10 10s10-4.5 10-10v-6.9c0-5.5-4.5-10-10-10zm0-48.5c-5.5 0-10 4.5-10 10v6.9c0 5.5 4.5 10 10 10s10-4.5 10-10v-6.9c0-5.5-4.5-10-10-10zM288.1 446.6c-1.9-1.9-4.4-2.9-7.1-2.9s-5.2 1.1-7.1 2.9c-1.9 1.9-2.9 4.4-2.9 7.1 0 2.6 1.1 5.2 2.9 7.1 1.9 1.9 4.4 2.9 7.1 2.9s5.2-1.1 7.1-2.9c1.9-1.9 2.9-4.4 2.9-7.1 0-2.6-1.1-5.2-2.9-7.1zm109.1-152c-3.9-3.9-10.2-3.9-14.1 0l-.7.7c-3.9 3.9-3.9 10.2 0 14.1 2 2 4.5 2.9 7.1 2.9 2.6 0 5.1-1 7.1-2.9l.7-.7c3.8-3.9 3.8-10.2-.1-14.1z"/></svg>