<svg xmlns="http://www.w3.org/2000/svg" viewBox="0 0 512 445.3" width="44" height="38" fill="#ad8651"><path d="M26.8 143.5c21 35.4 16.3 42.4 2.3 63.2l-3.6 5.4c-1.5 2.3-3.1 4.6-4.7 6.9-9.6 12-16.3 26.1-19.4 41.1-3.1 19.1 3.7 38.5 18.1 51.4 10.3 8.2 22.8 13.1 36 13.9 3.9.4 7.9.5 11.9.5 12-.1 23.9-1.7 35.5-4.8-21.7 35.4-27.9 78.2-17.1 118.4 1.2 3.6 4.6 6 8.4 5.8 3.8-.1 7-2.8 8-6.5 4.6-15.6 14.3-29.2 27.5-38.6 6.2 22.8 24.7 40.2 47.9 44.9 3.3.7 6.6-.7 8.6-3.4s2.1-6.3.5-9.2c-1.2-2.2-30-54.1 23.7-100.2 22.6-20.7 38.5-47.8 45.6-77.6 7.1 29.8 23 56.9 45.6 77.6 53.4 45.8 25 98 23.7 100.2-1.7 2.9-1.5 6.5.5 9.2 2 2.7 5.3 4 8.6 3.4 23.1-4.7 41.6-22.1 47.8-44.9 13.3 9.4 23 23 27.6 38.6.9 3.7 4.2 6.3 7.9 6.5h.3c3.7 0 6.9-2.3 8.1-5.8 10.8-40.2 4.6-83-17.2-118.4 11.6 3.1 23.5 4.7 35.5 4.8 4 0 8-.2 11.9-.5 13.1-.8 25.7-5.7 36-13.9a57.4 57.4 0 0 0 18.1-51.4c-3.1-15.1-9.8-29.2-19.5-41.1-1.6-2.3-3.1-4.6-4.7-6.9l-3.6-5.3c-14-20.8-18.7-27.8 2.3-63.2 23.1-39 26.3-90.1 26.7-104.7.1-2 .1-3.1.1-3.1.8-14.7-8.4-28.2-22.5-32.6-49.8-17.7-169.7 44-197.2 78.4l-.6 1.2c-4.6-2.2-9.5-3.7-14.6-4.2-1.3-.1-2.5-.2-3.7-.2H239c-6.4 0-12.7 1.4-18.4 4.2-.1-.3-.3-.7-.5-1C192.5 47.2 72.7-14.5 22.5 3.1 8.5 7.6-.8 21 .1 35.7c0 2.6.3 63.2 26.7 107.8zm30.4 164.8c-9.6-.6-18.9-4-26.5-9.9-9.9-9.2-14.5-22.8-12.2-36.1 2.8-12.4 8.5-23.9 16.6-33.7 1.6-2.4 3.3-4.8 4.8-7.1l3.5-5.2c16.7-24.8 23.6-38.6-1.8-81.4-10.4-19-17.4-39.6-20.6-61 15.5 11.3 32.8 19.7 51.3 24.8h.1c14.6 4.5 29.4 8.2 44.3 11 12.8 2.5 25.8 4.6 38.8 6.2 15.9 2.1 30 3.4 40.8 4.2 0 .4-.1.7-.1 1.1v17.1c0 16.4 9.4 31.3 24.2 38.4-9.4 31.4-25.9 60.1-48.2 84-14.5 15.2-31.9 27.5-51 36.2l-.2.1c-19.8 9-41.9 13-63.8 11.3zm142.1 11.1c-42.9 36.8-41 78.3-34.8 102.1-12.4-7.6-19.8-21.3-19.4-35.9 0-3-1.5-5.7-4-7.3-2.5-1.6-5.7-1.7-8.3-.4-13.7 7.4-25.6 17.8-34.8 30.4-1.7-35.3 9.9-70 32.6-97.2 20.3-9.5 38.6-22.7 54.1-38.9 24.4-26.1 42.3-57.5 52.5-91.7.6 0 1.2.1 1.9.1h8.2c-.1 4.9-.1 11.7.4 19.7-2 30.8-10.6 86.6-48.4 119.1zm214.9 89.2c-8.9-12.2-20.4-22.4-33.7-29.8-.1-.1-.3-.1-.4-.2-1.4-1-3-1.5-4.6-1.5-4.7 0-8.5 3.8-8.5 8.6.4 14.5-7 28.1-19.3 35.7 6.1-23.8 8-65.2-34.8-102-37.9-32.5-46.5-88.3-48.2-118.9.4-8 .5-14.8.4-19.7h8.2c.6 0 1.2-.1 1.8-.1l.6 2c10.2 33.5 28 64.2 52 89.7 15.5 16.1 33.7 29.2 53.9 38.7 22.6 27.1 34.4 62 32.6 97.5zm56.3-273.8c-25.4 42.8-18.5 56.6-1.8 81.4l3.5 5.2c1.6 2.4 3.2 4.7 4.8 7.1 8.1 9.8 13.7 21.4 16.6 33.7 2.2 13.3-2.4 26.9-12.3 36.1-7.6 5.9-16.9 9.4-26.5 9.9-21.8 1.7-43.6-2.2-63.4-11.3-.3-.2-.7-.4-1-.5-19-8.7-36.2-20.9-50.7-36-22.2-23.6-38.6-52.1-48-83.1l-.3-.9c14.8-7 24.3-22 24.3-38.4v-17c0-.4-.1-.7-.1-1.1 10.8-.8 24.9-2.1 40.8-4.2 13-1.7 26.1-3.8 38.8-6.2 15-2.8 29.8-6.4 44.4-11h.1c18.5-5.1 35.9-13.5 51.3-24.8-3.1 21.5-10.1 42.1-20.5 61.1zM305.3 92.2c25.9-32.4 139.2-86.8 178.5-73 7.2 2.1 11.9 9 11.1 16.5 0 .1 0 .8-.1 2-1.4 17.2-21.4 29.7-42.7 38.3l8-20c1.1-2.8.7-6-1.2-8.4-1.9-2.4-4.9-3.6-7.9-3.2-3 .4-5.6 2.4-6.7 5.3l-13.5 33.7c-7.1 2.2-14.9 4.2-23.3 6.1l10-25c1.2-2.8.7-6.1-1.2-8.5-1.9-2.4-4.9-3.6-8-3.2s-5.6 2.5-6.7 5.4l-14.1 35.3c-6.2 1.2-12.5 2.2-18.7 3.2l6-15.1c1.7-4.4-.4-9.3-4.8-11.1-4.4-1.7-9.3.4-11.1 4.8l-9.7 24.2c-14.8 1.8-27.8 3-37.6 3.7-1.8-3.8-4.1-7.3-6.9-10.5.2-.2.5-.3.6-.5zm-80.8 7.8c4.2-3 9.3-4.5 14.5-4.5h34.1c.9 0 1.7.1 2.6.1 13 1.4 23 12.3 23 25.5v17.1c0 11.7-7.9 21.9-19.2 24.8-.1 0-.3.1-.4.1-2 .5-4 .7-6 .7H239c-2 0-4-.2-6-.7-11.5-2.7-19.7-13-19.6-24.9V121c0-2.3.3-4.5.9-6.7 1.4-5 4.3-9.6 8.3-12.9.5-.5 1.1-.9 1.9-1.4zM28.2 19.2c39.3-13.7 152.6 40.7 178.5 73 .1.2.3.2.5.4-2.8 3.1-5.1 6.7-6.9 10.5-9.8-.7-22.8-1.9-37.6-3.7L153 75.3c-1.1-2.8-3.7-4.8-6.7-5.3-3-.4-6 .8-7.9 3.2-1.9 2.4-2.4 5.6-1.2 8.4l6 15.1c-6.3-1-12.5-2-18.7-3.2l-14.1-35.3c-1.1-2.9-3.7-4.9-6.7-5.4s-6.1.8-8 3.2c-1.9 2.4-2.3 5.7-1.2 8.5l10 25c-8.4-1.9-16.1-3.9-23.3-6.1L67.7 49.7c-1.7-4.4-6.7-6.5-11.1-4.8-4.4 1.7-6.5 6.7-4.8 11.1l8 20c-22.2-9-42.7-22.1-42.7-40.3-.8-7.5 3.9-14.4 11.1-16.5z"/><path d="M122.7 240c28.1-11.7 52.8-30.3 71.9-54 1.8-2.4 2.2-5.7 1-8.5-1.2-2.8-3.8-4.8-6.8-5.1-3-.4-6 .9-7.8 3.4-17.3 21.2-39.4 37.8-64.6 48.4-2.8 1.1-4.8 3.7-5.3 6.7-.4 3 .8 6 3.2 7.9 2.3 1.8 5.5 2.3 8.4 1.2zm-3.2-59.2c.7 0 1.4-.1 2.1-.3 18.2-4.1 35.9-10.1 52.9-17.7 4.2-2.1 5.9-7.2 3.8-11.4-2.1-4.2-7.2-5.9-11.4-3.8-15.9 7-32.5 12.5-49.5 16.4-4.2 1-6.9 5-6.4 9.3.6 4.3 4.2 7.5 8.5 7.5zm276.2 43.3c-25.1-10.6-47.3-27.3-64.6-48.4-2.8-3.8-8.2-4.5-11.9-1.7-3.8 2.8-4.5 8.2-1.7 11.9 19.1 23.7 43.8 42.3 71.9 54 4.4 1.7 9.3-.4 11.1-4.8 1.7-4.3-.5-9.2-4.8-11zm-58.2-61.2c17 7.6 34.7 13.6 52.9 17.7 4.5 1.1 9.1-1.7 10.2-6.2 1.1-4.5-1.6-9.1-6.1-10.3-17-3.9-33.5-9.4-49.5-16.4-4.2-2.1-9.3-.4-11.4 3.8-2 4.2-.3 9.3 3.9 11.4z"/></svg>