<svg xmlns="http://www.w3.org/2000/svg" viewBox="0 0 480 359.6" width="54" height="41" fill="#ad8651"><path d="M96 279.6c-22.1 0-40 17.9-40 40s17.9 40 40 40 40-17.9 40-40-17.9-40-40-40zm0 64c-13.3 0-24-10.7-24-24s10.7-24 24-24 24 10.7 24 24-10.8 24-24 24zm223.9-64c-22.1 0-40 17.9-40 40s17.9 40 40 40 40-17.9 40-40-17.9-40-40-40zm0 64c-13.3 0-24-10.7-24-24s10.7-24 24-24 24 10.7 24 24-10.7 24-24 24z"/><path d="M104 319.6c0 4.4-3.6 8-8 8s-8-3.6-8-8 3.6-8 8-8 8 3.6 8 8zm223.9 0c0 4.4-3.6 8-8 8s-8-3.6-8-8 3.6-8 8-8 8 3.6 8 8zm-35.1-49c16.9-9.2 37.3-9.2 54.2 0 1.2.7 2.5 1 3.8 1 3.7.1 6.9-2.4 7.9-6s-.7-7.3-3.9-9.1c-21.7-11.9-48-11.9-69.7 0-3.9 2.2-5.2 7.1-3 11 2.2 3.9 7.1 5.2 11 3h-.3zM80 265.9c10.6-3.3 21.9-3.3 32.5 0 .8.1 1.6.1 2.4 0 4.4.7 8.5-2.4 9.2-6.8.7-4.4-2.4-8.5-6.8-9.2-13.6-4.1-28.2-4.1-41.8 0-4.4 1.3-7 5.9-5.7 10.3 1.2 4.4 5.8 7 10.2 5.7zm136-18.3c-4.4 0-8 3.6-8 8v16c0 4.4 3.6 8 8 8s8-3.6 8-8v-16c0-4.4-3.6-8-8-8z"/><path d="M471.9 343.6c-21.5.2-41.2-12-50.7-31.4l-5.3-10.7c-.9-35.1-22.4-66.3-55-79.4l7-20.9c1.4-4.3 3.6-8.2 6.4-11.7 4.9-6.1 11.7-10.5 19.3-12.6 14.2-3.9 26.1-13.4 33-26.4 6.9-13 8.2-28.2 3.4-42.1 9.9-4.5 17.6-12.6 21.8-22.6.3-.8.5-1.6.6-2.5 11.5-4.1 20.7-12.8 25.6-24 4.5-12.5.9-26.5-9.2-35.2s-24.5-10.2-36.1-3.9c0-.6-.6-1.2-.8-1.8C426.5 6.8 414.5-.5 401.5 0c-13 .6-24.3 8.9-28.7 21.1-.7 2.1-1.2 4.3-1.5 6.5-2.8.5-5.4 1.3-8 2.4-7.7 3.4-13.8 9.8-16.8 17.7-11 30.2 24 64 30.2 69.6l1.2 7.1c2.9 17.5-7 34.5-23.5 40.8-11 4.2-20.4 12-26.5 22.1-14.3-31.4-45.5-51.5-80-51.6h-58.3c-16.3 0-31 9.9-37.1 25.1l-22 54.9H59.1c-19 0-35.3 13.4-39.1 32h-4c-8.8 0-16 7.2-16 16v16c0 7.3 5 13.6 12 15.4l-.8 4.6c-1.2 7 .8 14.2 5.5 19.6 4.6 5.4 11.4 8.4 18.5 8.4 4.4 0 8-3.6 8-8s-3.6-8-8-8c-2.4 0-4.6-1-6.2-2.8-1.5-1.8-2.2-4.2-1.8-6.5l.9-6.7H40c13.3 0 24-10.7 24-24s-10.7-24-24-24h-3.5c3.4-9.6 12.5-16 22.6-16h70.6l22.2 89.9v.6l.5 1.1 1 1.4.7.8 1.5 1 .9.5c1.1.4 2.2.6 3.4.6h88c4.4 0 8-3.6 8-8v-88h72c39.8 0 72 32.2 72 72 0 4.4-3.6 8-8 8h-8c-4.4 0-8 3.6-8 8s3.6 8 8 8h8c5.9 0 11.7-2.3 16-6.3 12.5 23.7 37.2 38.5 64 38.3 4.4 0 8-3.6 8-8s-3.6-8-8-8zM48 271.6c0 4.4-3.6 8-8 8H16v-16h24c4.4 0 8 3.6 8 8zm365.7-131.2c-4.4 10.3-13.2 18-24 21.1-2.4.6-4.6 1.4-6.9 2.4 9.7-11.8 13.8-27.2 11.3-42.2V119c7.4-.8 14.8-2.3 21.9-4.5 2.3 8.7 1.5 17.9-2.3 25.9zm19.2-97.8c3-8.3 12.2-12.6 20.5-9.6S466 45.2 463 53.5c-2.2 5-6.1 9.2-10.9 11.9-2.9-9.5-10.1-17.1-19.4-20.6h-1c.4-.6.9-1.4 1.2-2.2zm-25-26c4 1.3 7.2 4.2 9 8 1.8 3.8 2 8.2.6 12.2-.3.9-.5 1.8-.5 2.8 0 1.2.3 2.3.9 3.4-4.1.4-8.2 1.7-11.8 3.7l-.8-1.9c-3.6-7.7-10.1-13.6-18.1-16.5.1-.8.3-1.5.6-2.2 3.1-8.2 12-12.3 20.1-9.5zm-46.4 36.5c1.4-3.9 4.3-7.2 8-9 2.1-1 4.4-1.5 6.7-1.5 1.9 0 3.7.3 5.5 1 4.1 1.3 7.5 4.3 9.4 8.1 1.9 3.9 2.2 8.4.7 12.4-.3.9-.5 1.8-.5 2.7 0 3.9 2.8 7.2 6.6 7.9 3.8.7 7.6-1.5 8.9-5.2 2.7-7.9 11.1-12.4 19.1-10.3 8.1 2.1 13.2 10 11.7 18.3-.2 1-.4 2-.7 3-6.1 16.6-36.3 22.2-51 23.3-10.8-10.4-30.4-34.1-24.4-50.7zm-1.6 127c.7 0 1.4-.7 2.2-1v.4c-4.1 5-7.2 10.6-9.2 16.7l-7 21.2c-3.3-.6-6.6-1-9.9-1.4v-1.1c0-15.4 9.5-29.3 23.9-34.8zM240 311.6h-73.7l-20-80h38.4c4.4 0 8-3.6 8-8s-3.6-8-8-8h-36.8l19.5-48.9c3.6-9.1 12.5-15.1 22.3-15.1H240v40c0 4.4 3.6 8 8 8s8-3.6 8-8v-39.5c33.4 3.7 59.8 30.1 63.5 63.5H222c-4.4 0-8 3.6-8 8s3.6 8 8 8h18v80z"/></svg>