<?xml version="1.0" standalone="no"?>
<!DOCTYPE svg PUBLIC "-//W3C//DTD SVG 20010904//EN"
 "http://www.w3.org/TR/2001/REC-SVG-20010904/DTD/svg10.dtd">
<svg version="1.0" xmlns="http://www.w3.org/2000/svg"
 width="700.000000pt" height="700.000000pt" viewBox="0 0 700.000000 700.000000"
 preserveAspectRatio="xMidYMid meet">
<metadata>
Created by potrace 1.11, written by Peter Selinger 2001-2013
</metadata>
<g transform="translate(0.000000,700.000000) scale(0.100000,-0.100000)"
fill="#000000" stroke="none">
<path d="M1630 6808 c-142 -25 -298 -131 -381 -260 -17 -27 -32 -48 -33 -48
-1 0 -27 9 -57 20 -73 25 -99 30 -195 37 -100 7 -222 -21 -302 -70 -115 -68
-204 -197 -237 -342 -18 -78 -18 -217 0 -280 6 -22 13 -44 14 -50 10 -46 18
-68 46 -127 42 -84 69 -124 140 -204 54 -62 167 -154 248 -203 21 -13 35 -27
30 -31 -4 -4 -46 -38 -93 -75 -167 -131 -362 -349 -480 -537 -59 -92 -164
-309 -204 -418 -34 -94 -89 -307 -100 -385 -22 -159 -28 -413 -14 -565 27
-287 133 -610 280 -858 24 -40 48 -81 53 -90 80 -141 319 -401 478 -522 63
-47 118 -54 155 -20 l21 20 51 -34 c29 -19 71 -44 95 -57 40 -21 43 -26 43
-64 -1 -56 15 -81 70 -109 72 -36 237 -96 337 -122 90 -23 101 -25 205 -43 30
-6 71 -13 90 -16 71 -13 425 -12 523 1 122 16 300 56 394 87 l71 24 28 -61
c120 -257 312 -506 540 -702 386 -330 889 -518 1389 -518 89 0 247 10 295 18
14 3 43 7 65 10 166 22 388 93 580 185 438 210 779 545 996 981 81 163 168
410 185 525 1 11 10 65 19 120 20 112 28 423 15 520 -5 33 -11 82 -15 109 -26
225 -127 514 -264 761 -33 58 -138 215 -151 225 -4 3 -11 12 -16 21 -25 46
-205 233 -313 326 l-34 29 49 29 c116 68 257 190 322 279 20 28 39 53 43 56
16 13 81 165 99 231 24 96 22 279 -4 354 -52 144 -139 254 -244 309 -136 69
-302 80 -455 29 l-85 -28 -18 35 c-11 19 -53 69 -94 110 -132 133 -290 189
-459 165 -138 -19 -251 -93 -371 -241 -29 -36 -78 -140 -99 -209 -31 -101 -41
-213 -28 -330 10 -91 16 -117 47 -217 16 -51 28 -93 27 -94 -1 -1 -59 -4 -129
-5 -188 -4 -421 -40 -568 -88 -86 -28 -120 -34 -120 -21 0 12 -51 118 -89 184
-260 452 -688 803 -1185 970 -145 48 -349 92 -481 102 -38 3 -92 7 -118 9 -27
2 -51 6 -54 8 -2 3 3 20 13 38 27 54 64 170 64 204 0 36 -30 80 -61 90 -14 5
-18 12 -13 27 3 11 6 62 6 114 l-1 95 35 32 c49 44 49 91 1 192 -89 187 -215
302 -387 354 -48 14 -156 19 -210 9z m740 -1793 c19 -3 78 -15 130 -27 401
-88 738 -327 957 -679 42 -67 113 -210 113 -227 0 -5 -28 -31 -62 -57 -89 -68
-292 -275 -366 -373 -176 -231 -312 -511 -383 -786 -12 -44 -23 -91 -25 -103
-2 -13 -6 -35 -9 -50 -29 -165 -37 -379 -22 -617 2 -39 2 -39 -53 -58 -199
-70 -438 -96 -660 -74 -41 4 -82 9 -90 11 -8 2 -31 7 -50 10 -177 30 -412 129
-575 244 -409 287 -653 751 -659 1256 -7 506 253 998 679 1287 195 132 414
212 675 248 60 8 344 5 400 -5z m2715 -1160 c316 -53 601 -192 821 -398 47
-45 93 -86 101 -90 21 -13 81 -11 97 2 15 13 23 4 105 -113 l41 -60 -22 -24
c-33 -35 -30 -100 9 -182 57 -119 96 -242 128 -410 9 -42 18 -181 18 -255 1
-501 -278 -1011 -703 -1283 -331 -212 -759 -289 -1150 -206 -105 22 -97 19
-184 48 -220 72 -417 196 -586 366 -127 128 -208 239 -287 398 l-52 104 76 60
c242 192 446 449 588 738 25 52 50 103 56 112 5 10 9 23 9 30 0 7 7 25 14 40
16 30 72 207 80 248 2 14 9 43 14 65 15 55 27 139 41 265 6 62 6 241 -2 424
-2 39 -1 40 45 57 61 22 166 47 264 64 81 14 399 14 479 0z m-1414 -608 c-6
-34 -13 -74 -16 -90 -12 -61 -77 -243 -119 -330 -45 -94 -140 -244 -194 -307
l-29 -35 9 65 c39 256 150 522 306 727 53 69 60 64 43 -30z"/>
</g>
</svg>
