<?xml version="1.0" standalone="no"?>
<!DOCTYPE svg PUBLIC "-//W3C//DTD SVG 20010904//EN"
 "http://www.w3.org/TR/2001/REC-SVG-20010904/DTD/svg10.dtd">
<svg version="1.0" xmlns="http://www.w3.org/2000/svg"
 width="3000.000000pt" height="3000.000000pt" viewBox="0 0 3000.000000 3000.000000"
 preserveAspectRatio="xMidYMid meet">
<metadata>
Created by potrace 1.11, written by Peter Selinger 2001-2013
</metadata>
<g transform="translate(0.000000,3000.000000) scale(0.100000,-0.100000)"
fill="#000000" stroke="none">
<path d="M19859 22106 c-2 -2 -63 -7 -134 -11 -72 -3 -155 -8 -185 -10 -30 -2
-100 -7 -155 -10 -117 -7 -148 -9 -395 -30 -92 -8 -154 -15 -270 -30 -19 -2
-60 -7 -90 -10 -30 -3 -93 -13 -140 -20 -47 -8 -103 -17 -125 -20 -22 -4 -92
-17 -155 -30 -63 -13 -126 -26 -140 -29 -14 -3 -40 -9 -58 -15 -18 -5 -35 -10
-37 -10 -3 0 -18 -2 -33 -5 -15 -3 -44 -8 -64 -11 -21 -2 -59 -10 -85 -16 -27
-6 -61 -13 -78 -16 -16 -2 -46 -8 -65 -13 -19 -5 -48 -11 -65 -14 -65 -12
-327 -79 -455 -117 -548 -163 -1029 -385 -1470 -677 -80 -53 -149 -100 -155
-104 -205 -155 -329 -257 -446 -367 l-73 -68 -70 44 c-118 74 -322 195 -424
251 -207 113 -719 361 -747 361 -3 1 -18 7 -34 15 -16 9 -91 40 -167 71 -77
30 -148 60 -159 65 -23 10 -254 93 -390 139 -80 27 -152 49 -395 123 -165 49
-526 145 -635 167 -42 9 -176 39 -210 47 -11 3 -31 7 -45 10 -14 2 -79 15
-145 29 -66 13 -147 29 -180 34 -33 6 -100 17 -150 25 -49 8 -103 17 -120 20
-101 17 -155 26 -195 31 -25 3 -78 10 -119 16 -82 12 -112 16 -183 24 -111 12
-152 17 -167 20 -9 2 -48 6 -86 9 -39 4 -97 9 -130 12 -387 37 -665 48 -1170
48 -450 0 -649 -7 -915 -30 -36 -3 -90 -7 -120 -9 -62 -4 -143 -12 -210 -20
-25 -3 -70 -8 -100 -10 -30 -3 -66 -8 -80 -10 -14 -2 -46 -6 -72 -9 -26 -3
-63 -8 -82 -11 -20 -3 -53 -7 -73 -10 -21 -3 -90 -14 -153 -25 -63 -11 -132
-22 -154 -26 -39 -6 -60 -9 -106 -19 -14 -2 -38 -7 -55 -10 -16 -2 -41 -7 -55
-10 -14 -2 -36 -7 -50 -9 -14 -2 -59 -12 -100 -21 -106 -23 -110 -24 -154 -31
-22 -3 -44 -8 -48 -10 -6 -4 -66 -17 -138 -30 -14 -2 -56 -11 -95 -20 -38 -9
-77 -17 -85 -19 -8 -2 -45 -10 -83 -19 -37 -9 -82 -18 -100 -21 -17 -3 -58
-13 -90 -21 -32 -8 -77 -19 -100 -23 -217 -44 -796 -227 -1007 -319 -14 -6
-63 -27 -110 -46 -47 -19 -164 -72 -260 -119 -96 -46 -215 -104 -265 -127 -87
-41 -524 -258 -568 -283 -12 -7 -30 -18 -39 -26 -10 -8 -18 -11 -18 -7 0 4
-12 -1 -28 -12 -15 -10 -76 -46 -136 -78 -177 -96 -739 -461 -1066 -692 -110
-78 -401 -300 -410 -313 -3 -4 -23 -22 -45 -39 -115 -91 -471 -435 -595 -575
-58 -65 -137 -159 -164 -193 -11 -15 -25 -32 -31 -38 -6 -6 -37 -47 -70 -90
-33 -43 -62 -81 -65 -84 -4 -3 -33 -43 -65 -90 -375 -534 -644 -1124 -781
-1712 -2 -10 -6 -26 -9 -35 -12 -48 -54 -264 -60 -312 -4 -30 -9 -63 -11 -75
-4 -22 -13 -101 -20 -171 -19 -215 -23 -439 -10 -655 4 -69 10 -264 12 -435
10 -783 21 -1126 38 -1215 4 -19 9 -51 11 -70 4 -35 15 -110 19 -133 2 -7 6
-30 10 -52 21 -113 38 -196 51 -245 8 -30 16 -66 19 -80 59 -272 194 -645 350
-965 187 -384 420 -731 722 -1075 145 -166 356 -375 524 -520 35 -30 95 -88
134 -129 107 -111 296 -300 358 -356 164 -150 349 -307 490 -415 51 -39 100
-77 108 -83 85 -68 465 -327 480 -327 5 0 10 -3 12 -8 3 -7 164 -109 198 -126
23 -11 57 -31 71 -42 8 -6 46 -28 84 -49 39 -21 75 -41 80 -45 29 -21 376
-198 570 -290 183 -86 476 -208 760 -315 85 -33 434 -149 538 -180 189 -56
345 -99 397 -110 8 -2 15 -4 15 -5 0 -1 7 -3 15 -5 8 -1 42 -10 75 -19 83 -22
314 -77 350 -82 17 -3 46 -9 65 -14 19 -5 53 -12 75 -16 22 -3 42 -7 45 -9 3
-2 25 -6 50 -10 25 -4 47 -8 50 -10 3 -2 24 -6 46 -9 22 -4 51 -9 64 -11 44
-9 143 -26 210 -36 36 -5 79 -12 95 -15 17 -3 44 -7 60 -9 17 -1 44 -5 60 -8
45 -8 104 -16 170 -23 33 -3 67 -8 75 -9 29 -5 166 -21 275 -30 408 -37 646
-48 1085 -48 291 -1 543 6 730 18 244 16 482 36 490 40 3 1 41 6 85 9 44 4 91
9 105 11 14 2 45 6 70 10 66 8 109 14 160 21 25 3 56 7 70 9 14 2 39 6 55 9
17 3 50 8 75 11 25 4 106 18 180 31 74 14 146 26 160 29 191 30 616 128 900
207 80 22 150 41 155 42 32 7 414 129 555 177 19 7 42 14 50 17 8 3 17 6 20 7
3 1 12 4 20 8 8 3 60 22 115 42 55 19 114 42 130 49 17 8 68 29 115 46 289
108 847 372 1145 540 22 13 74 42 115 65 93 52 124 70 225 132 44 27 91 55
104 63 36 23 302 196 336 220 66 46 141 100 152 110 7 5 17 10 23 10 5 0 10 3
10 8 0 4 17 18 38 32 98 65 429 332 578 465 68 62 212 195 272 252 l75 72 41
-32 c23 -17 43 -34 46 -37 27 -28 377 -292 516 -389 187 -131 442 -297 602
-392 248 -149 509 -291 762 -418 184 -91 289 -140 570 -263 25 -11 59 -26 75
-34 130 -58 563 -221 745 -279 63 -21 124 -41 135 -46 18 -7 287 -89 410 -124
150 -43 489 -127 600 -149 11 -3 56 -12 100 -21 44 -9 88 -19 98 -21 10 -2 26
-5 35 -8 9 -3 33 -8 52 -10 35 -5 126 -21 165 -29 11 -3 40 -8 65 -12 25 -4
52 -9 60 -10 14 -2 69 -11 133 -21 15 -2 39 -6 55 -8 15 -3 54 -8 87 -11 33
-4 72 -9 88 -11 15 -2 39 -6 55 -8 15 -2 54 -7 87 -11 33 -3 76 -8 95 -10 19
-3 67 -7 105 -10 39 -4 86 -8 105 -10 31 -2 180 -13 300 -21 42 -3 573 -16
595 -15 6 0 96 2 200 5 105 3 226 8 270 10 193 12 272 17 300 21 17 2 66 6
110 10 44 3 94 8 110 10 17 2 53 7 80 10 28 4 61 8 75 10 14 2 52 7 85 11 33
4 67 8 75 8 8 1 31 5 50 9 19 4 46 9 60 11 14 2 41 7 60 10 19 3 51 8 70 11
55 7 367 71 466 95 49 12 97 24 107 26 10 2 26 5 35 8 9 3 28 7 42 10 14 3 88
23 165 46 77 23 148 43 158 45 9 2 66 20 125 40 59 20 114 38 122 40 15 3 248
88 285 104 19 8 200 83 495 206 69 29 144 62 168 74 23 12 42 19 42 17 0 -9
445 221 550 284 196 117 526 349 606 425 6 5 30 26 54 45 155 126 448 421 612
618 40 48 78 92 84 97 9 8 82 123 141 220 31 51 79 135 106 185 16 30 45 84
65 120 43 78 211 414 282 565 149 313 299 696 345 879 13 51 40 135 60 187 32
81 140 396 151 439 2 8 17 67 34 130 28 107 62 271 75 365 4 22 8 51 10 65 3
14 7 48 10 75 3 28 8 66 10 85 20 156 26 623 11 785 -4 44 -10 101 -12 127 -2
26 -6 59 -8 75 -3 15 -8 51 -11 78 -6 44 -23 147 -40 240 -58 315 -179 701
-325 1040 -51 120 -200 424 -244 500 -12 22 -34 60 -48 85 -70 124 -162 273
-249 402 -22 32 -39 60 -39 63 0 3 -5 11 -10 18 -6 7 -54 80 -108 164 -100
156 -241 363 -318 468 -24 33 -55 76 -68 96 -13 20 -30 42 -38 50 -8 8 -34 41
-58 74 -24 33 -46 62 -50 65 -3 3 -24 27 -45 55 -46 57 -76 93 -90 109 -6 6
-39 45 -75 86 -35 41 -69 80 -74 86 -6 6 -45 48 -86 94 -142 157 -378 389
-614 605 -42 38 -237 203 -311 264 -49 40 -99 80 -110 89 -11 9 -90 69 -175
134 -85 65 -159 122 -165 126 -5 4 -48 35 -95 67 -47 33 -87 62 -90 65 -5 6
-401 270 -446 297 -10 6 -95 58 -189 116 -184 113 -334 200 -460 267 -44 24
-106 58 -139 77 -60 35 -553 280 -661 328 -124 56 -351 153 -550 235 -424 174
-1170 409 -1556 489 -24 5 -54 12 -65 14 -54 13 -212 47 -244 52 -19 3 -42 8
-50 10 -16 4 -19 5 -160 30 -47 8 -96 17 -110 20 -14 3 -38 8 -55 10 -16 3
-68 13 -115 21 -47 9 -94 17 -105 19 -11 1 -51 8 -90 15 -38 6 -79 13 -90 14
-11 2 -33 6 -50 9 -16 3 -46 9 -65 11 -19 3 -46 8 -60 11 -14 3 -44 7 -67 10
-24 3 -75 10 -115 15 -125 18 -245 30 -448 46 -95 7 -675 16 -681 10z m-249
-3190 c169 -8 239 -12 335 -21 39 -3 93 -8 120 -10 68 -6 135 -13 227 -26 43
-5 90 -12 105 -14 56 -7 119 -16 143 -20 14 -2 45 -7 70 -10 25 -3 52 -8 61
-11 10 -3 31 -6 48 -9 17 -2 54 -8 83 -14 29 -6 64 -13 78 -15 177 -32 604
-134 760 -180 25 -8 79 -24 120 -36 41 -13 111 -34 155 -48 44 -14 85 -27 90
-28 6 -1 57 -19 115 -38 58 -20 112 -38 120 -41 20 -5 229 -82 255 -94 11 -5
70 -28 130 -52 408 -158 970 -428 1350 -649 50 -29 110 -64 135 -78 25 -13 52
-31 61 -38 8 -8 18 -14 22 -14 15 0 390 -240 582 -374 339 -235 775 -578 1000
-786 28 -26 82 -75 120 -111 100 -91 448 -441 525 -528 36 -40 74 -83 86 -95
11 -11 45 -50 75 -86 29 -36 56 -67 60 -70 32 -29 302 -381 400 -523 58 -84
70 -102 165 -254 202 -322 382 -696 488 -1016 62 -190 124 -447 141 -592 3
-27 8 -63 11 -80 11 -72 21 -414 12 -419 -2 -1 -39 -31 -83 -67 -214 -175
-463 -333 -750 -477 -154 -77 -294 -142 -321 -147 -6 -2 -27 -10 -45 -19 -41
-19 -161 -64 -209 -78 -19 -5 -39 -14 -45 -18 -5 -4 -21 -10 -35 -13 -14 -3
-90 -25 -170 -50 -130 -40 -184 -55 -207 -58 -5 -1 -18 -5 -31 -10 -21 -8 -37
-12 -102 -25 -14 -3 -33 -7 -42 -10 -9 -3 -27 -7 -40 -10 -13 -2 -32 -6 -43
-8 -11 -3 -42 -9 -70 -15 -27 -6 -59 -12 -70 -15 -11 -2 -40 -7 -65 -11 -25
-4 -54 -9 -65 -11 -34 -7 -112 -19 -185 -29 -14 -2 -43 -6 -65 -9 -22 -3 -60
-8 -85 -11 -88 -10 -135 -16 -170 -21 -19 -3 -64 -7 -100 -9 -36 -3 -85 -7
-110 -10 -25 -3 -70 -7 -100 -10 -30 -2 -102 -7 -160 -11 -201 -16 -870 -8
-1015 11 -16 2 -57 7 -90 10 -57 5 -88 8 -207 20 -56 6 -116 14 -158 20 -14 2
-61 9 -105 15 -101 14 -134 19 -165 24 -14 3 -41 7 -60 10 -72 11 -367 65
-410 75 -25 5 -58 12 -75 15 -16 3 -39 8 -50 10 -11 3 -76 16 -144 31 -69 14
-208 47 -310 72 -103 25 -196 47 -208 48 -11 2 -36 8 -55 14 -26 9 -393 114
-433 124 -29 8 -214 71 -240 82 -16 7 -41 16 -55 20 -114 32 -759 291 -785
316 -5 5 -17 9 -27 9 -10 0 -18 5 -18 10 0 6 -6 10 -14 10 -18 0 -476 232
-656 332 -121 67 -294 170 -399 236 -20 12 -43 25 -51 29 -8 4 -19 11 -25 15
-5 4 -95 65 -200 134 -151 100 -373 255 -440 307 -5 4 -32 23 -58 43 -51 38
-51 37 -33 130 2 12 7 45 11 75 3 30 8 65 10 79 3 14 7 45 10 70 3 25 7 61 10
80 2 19 7 64 10 100 3 36 8 85 11 110 12 116 24 290 40 595 10 173 10 695 1
820 -4 55 -12 128 -17 162 -6 34 -10 75 -9 90 1 38 -10 312 -16 393 -4 60 -7
94 -20 240 -3 30 -10 81 -16 112 -5 32 -12 79 -15 105 -2 27 -9 64 -14 83 -5
19 -12 51 -15 70 -3 19 -8 42 -10 50 -2 8 -6 26 -9 40 -12 66 -82 318 -118
425 -150 449 -404 946 -658 1291 -23 30 -40 57 -38 59 4 4 281 83 312 89 12 2
28 7 36 10 8 3 26 8 40 10 14 3 84 19 155 36 72 16 144 32 160 35 27 5 178 33
215 40 8 2 35 6 60 9 25 3 54 8 66 10 12 2 45 7 75 11 30 3 65 8 79 10 14 2
52 7 85 10 33 4 74 8 90 10 34 4 167 16 235 20 25 2 122 7 215 10 94 4 171 8
172 9 4 3 334 -2 463 -8z m-10225 -450 c94 -3 197 -8 230 -11 33 -2 98 -7 145
-10 47 -4 108 -9 135 -11 28 -2 77 -6 110 -8 59 -5 115 -11 205 -22 25 -3 63
-7 84 -9 22 -3 74 -9 116 -15 41 -6 94 -13 115 -15 48 -6 88 -12 175 -26 36
-6 74 -12 85 -14 59 -8 232 -39 315 -55 52 -11 107 -21 123 -24 15 -3 35 -7
45 -10 9 -3 33 -7 52 -10 19 -3 50 -10 68 -15 18 -5 35 -10 37 -10 3 0 18 -2
33 -5 15 -4 36 -8 47 -10 156 -32 592 -150 825 -224 80 -25 150 -46 155 -48 9
-2 58 -19 300 -103 33 -12 67 -24 75 -28 8 -3 20 -7 25 -8 10 -2 291 -116 462
-186 49 -20 83 -40 83 -48 0 -8 -9 -40 -20 -70 -17 -49 -69 -246 -84 -321 -29
-144 -40 -203 -56 -315 -10 -71 -22 -161 -25 -200 -4 -38 -8 -82 -11 -97 -17
-108 -17 -588 0 -738 4 -30 9 -77 11 -105 5 -57 31 -245 40 -290 3 -16 10 -52
15 -80 6 -27 12 -59 14 -70 2 -11 12 -51 21 -90 9 -38 18 -78 20 -87 16 -77
91 -320 143 -464 67 -186 121 -312 232 -539 37 -77 77 -162 88 -190 107 -265
136 -332 170 -405 95 -203 179 -365 270 -523 25 -45 41 -82 36 -87 -5 -4 -90
-54 -189 -109 -99 -55 -185 -105 -192 -111 -7 -5 -18 -10 -26 -10 -7 0 -17 -4
-22 -9 -12 -11 -368 -191 -490 -248 -125 -58 -205 -93 -210 -93 -3 0 -24 -9
-48 -19 -116 -52 -361 -143 -557 -208 -67 -22 -360 -111 -385 -117 -53 -13
-74 -19 -95 -27 -14 -4 -36 -11 -50 -13 -14 -3 -115 -28 -224 -55 -110 -28
-213 -53 -230 -55 -26 -4 -90 -18 -201 -42 -46 -10 -66 -14 -190 -38 -71 -13
-150 -27 -175 -31 -25 -4 -74 -13 -110 -20 -56 -12 -127 -23 -253 -41 -15 -2
-39 -6 -55 -9 -15 -4 -46 -8 -70 -10 -24 -2 -55 -6 -70 -9 -55 -12 -127 -23
-210 -32 -23 -2 -59 -6 -79 -8 -21 -2 -65 -7 -98 -10 -33 -3 -76 -8 -95 -11
-63 -9 -124 -15 -195 -20 -38 -3 -119 -8 -180 -12 -60 -4 -321 -7 -580 -8
-411 0 -567 4 -755 20 -137 11 -259 22 -340 31 -70 8 -120 13 -167 18 -70 7
-148 17 -173 21 -14 2 -43 7 -65 10 -23 3 -52 7 -65 10 -14 3 -43 7 -65 10
-22 3 -51 7 -65 10 -14 3 -38 8 -55 10 -16 2 -41 6 -55 9 -14 3 -63 12 -110
20 -47 8 -96 18 -110 21 -45 10 -74 16 -125 25 -44 9 -72 14 -165 35 -14 3
-34 7 -45 9 -19 4 -204 48 -275 66 -45 11 -121 32 -240 65 -52 15 -102 28
-110 30 -8 2 -49 14 -90 28 -41 13 -142 45 -225 71 -82 26 -172 55 -200 66
-324 121 -472 178 -535 205 -234 101 -458 203 -555 254 -60 32 -120 63 -132
69 -13 7 -31 16 -40 20 -194 92 -610 347 -888 542 -118 84 -221 157 -228 164
-6 6 -48 40 -92 76 -74 59 -134 109 -256 212 -66 55 -381 359 -429 414 -72 82
-232 288 -272 349 -133 205 -163 254 -214 348 -31 56 -65 116 -75 133 l-19 31
57 89 c82 127 240 349 349 489 107 137 211 267 222 275 4 3 32 34 62 70 118
139 378 405 545 555 48 44 96 87 105 96 14 13 112 96 246 207 11 9 58 46 105
82 46 35 86 67 89 70 3 3 18 14 34 25 16 11 43 30 60 43 17 12 49 34 71 49 22
14 42 29 45 32 3 3 64 45 135 92 195 129 499 310 625 372 25 12 47 24 50 27
12 12 363 180 507 243 107 47 306 128 413 168 109 40 459 159 485 165 11 2 31
8 45 13 23 9 132 41 155 45 6 1 35 10 65 19 45 13 298 78 363 93 33 8 154 33
182 38 6 1 19 5 30 9 11 3 36 8 55 11 47 8 77 13 195 36 132 25 289 50 402 64
15 2 52 7 82 11 30 4 62 8 73 10 10 2 51 7 91 10 39 3 79 8 87 10 15 4 126 15
205 20 22 2 74 6 115 9 124 10 216 15 400 22 96 3 176 7 177 8 4 4 529 -2 678
-8z m6559 -2792 c3 -8 2 -12 -4 -9 -6 3 -10 10 -10 16 0 14 7 11 14 -7z m32
-41 c87 -136 135 -215 132 -219 -2 -2 -38 50 -80 116 -42 66 -73 120 -70 120
4 0 12 -8 18 -17z"/>
</g>
</svg>
